# xmcd CD database file
#
# Track frame offsets:
#	150
#	40190
#	70917
#	98180
#	137730
#	173955
#	211770
#
# Disc length: 3422 seconds
#
# Revision: 0
# Processed by: cddbd v1.4PL0 Copyright (c) Steve Scherf et al.
# Submitted via: NeoAudio 1.50.6
#
DISCID=5e0d5c07
DTITLE=Fredrik Lundin - Choose Your Boots
DYEAR=2001
DGENRE=Jazz
TTITLE0=On The Road To Anywhere
TTITLE1=The Long Haul
TTITLE2=Beauty And The Only Slightly Less Handsome
TTITLE3=Those Were Happy Days
TTITLE4=Som I En Drøm
TTITLE5=Ladies In Distress
TTITLE6=Special Agent Ericssons Secret Identity
EXTD=YEAR: 2001
EXTT0=
EXTT1=
EXTT2=
EXTT3=
EXTT4=
EXTT5=
EXTT6=
PLAYORDER=
